<svg width="142" height="106" viewBox="0 0 142 106" fill="none" xmlns="http://www.w3.org/2000/svg">
<path d="M51.8847 106C50.6709 105.996 49.4709 105.744 48.3591 105.26C47.2474 104.775 46.2478 104.068 45.4224 103.184L2.39956 57.6816C0.791312 55.9776 -0.070224 53.7083 0.00448301 51.3727C0.07919 49.0372 1.08402 46.8269 2.79792 45.2279C4.51183 43.629 6.79441 42.7724 9.14353 42.8467C11.4927 42.921 13.7159 43.92 15.3241 45.624L51.7962 84.2611L126.245 3.29037C127.001 2.355 127.941 1.58307 129.007 1.02198C130.074 0.460899 131.244 0.122506 132.447 0.0275911C133.65 -0.0673238 134.86 0.0832436 136.002 0.470043C137.144 0.856843 138.195 1.47171 139.089 2.27688C139.984 3.08204 140.703 4.06051 141.203 5.15219C141.704 6.24387 141.974 7.4257 141.998 8.6251C142.022 9.8245 141.8 11.0161 141.344 12.1268C140.888 13.2375 140.208 14.2438 139.347 15.0839L58.4355 103.096C57.6179 103.996 56.6218 104.719 55.5097 105.219C54.3976 105.719 53.1936 105.985 51.9732 106H51.8847Z" fill="white"/>
</svg>
