<svg width="152" height="152" viewBox="0 0 152 152" fill="none" xmlns="http://www.w3.org/2000/svg">
<path d="M130.333 52H67.6667C59.0142 52 52 59.0142 52 67.6667V130.333C52 138.986 59.0142 146 67.6667 146H130.333C138.986 146 146 138.986 146 130.333V67.6667C146 59.0142 138.986 52 130.333 52Z" stroke="white" stroke-width="10.0656" stroke-linecap="round" stroke-linejoin="round"/>
<path d="M115 51.6667V35.8333C115 31.6341 113.332 27.6068 110.363 24.6375C107.393 21.6681 103.366 20 99.1667 20H35.8333C31.6341 20 27.6068 21.6681 24.6375 24.6375C21.6681 27.6068 20 31.6341 20 35.8333V99.1667C20 103.366 21.6681 107.393 24.6375 110.363C27.6068 113.332 31.6341 115 35.8333 115H51.6667" stroke="white" stroke-width="10.0656" stroke-linecap="round" stroke-linejoin="round"/>
</svg>
