<svg width="500" height="300" viewBox="0 0 500 300" fill="none" xmlns="http://www.w3.org/2000/svg">
<path d="M476.83 0H23.633C10.8368 0 0.463392 9.73293 0.463392 21.7391L0 96.5217C31.4787 96.5217 56.9972 120.465 56.9972 150C56.9972 179.535 31.4787 203.478 0 203.478L0.463392 278.261C0.463392 290.267 10.8368 300 23.633 300H476.83C489.627 300 500 290.267 500 278.261L499.537 203.478C468.058 203.478 442.539 179.535 442.539 150C442.539 120.465 468.058 96.5217 499.537 96.5217L500 21.7391C500 9.73294 489.627 0 476.83 0Z" fill="white"/>
</svg>
