<svg width="129" height="129" viewBox="0 0 129 129" fill="none" xmlns="http://www.w3.org/2000/svg">
<path d="M26.5 33.334H19.6667C16.042 33.334 12.5659 34.7739 10.0029 37.3369C7.43988 39.8999 6 43.376 6 47.0007V108.501C6 112.125 7.43988 115.601 10.0029 118.164C12.5659 120.727 16.042 122.167 19.6667 122.167H81.1667C84.7913 122.167 88.2675 120.727 90.8305 118.164C93.3935 115.601 94.8333 112.125 94.8333 108.501V101.667" stroke="white" stroke-width="12" stroke-linecap="round" stroke-linejoin="round"/>
<path d="M87.9994 19.6674L108.499 40.1674M117.964 30.4982C120.655 27.8069 122.167 24.1568 122.167 20.3507C122.167 16.5447 120.655 12.8945 117.964 10.2032C115.272 7.51195 111.622 6 107.816 6C104.01 6 100.36 7.51195 97.6685 10.2032L40.166 67.5007V88.0007H60.666L117.964 30.4982Z" stroke="white" stroke-width="12" stroke-linecap="round" stroke-linejoin="round"/>
</svg>
