<svg width="200" height="195" viewBox="0 0 200 195" fill="none" xmlns="http://www.w3.org/2000/svg">
<path d="M73.8821 192C29.232 192 3 172.68 3 137.4C3 113.88 17.2322 96.8 41.5108 87.56C31.1854 78.04 24.767 65.72 24.767 52.56C24.767 22.6 49.6036 3 87.5562 3C121.323 3 143.648 21.2 143.648 48.36C143.648 67.96 129.416 83.08 107.091 91.2L131.648 111.92C134.997 106.04 137.23 99.88 141.136 90.08C148.113 73.56 154.531 67.96 166.531 67.96C182.159 67.96 190.531 80.84 190.252 81.96C185.228 102.68 174.903 122 162.624 138.52L196.949 167.36C197.786 167.92 188.298 190.6 168.206 190.6C159.555 190.6 148.392 186.96 138.346 175.2L133.602 170.44C118.532 183.88 99.556 192 73.8821 192ZM78.0681 155.32C87.8353 155.32 97.6025 150.84 105.416 143.84L64.673 108.56C55.1849 113.6 49.3245 120.88 49.3245 131.24C49.3245 146.08 60.7661 155.32 78.0681 155.32ZM71.6496 53.96C71.6496 62.08 75.5565 67.96 82.5331 74.12C97.0444 69.36 102.347 62.36 102.347 53.12C102.347 43.88 96.2072 37.16 87.2772 37.16C77.789 37.16 71.6496 44.44 71.6496 53.96Z" fill="white" stroke="#EBEBEB" stroke-width="6"/>
</svg>
