<svg width="395" height="60" viewBox="0 0 395 60" fill="none" xmlns="http://www.w3.org/2000/svg">
<path d="M54.5227 29.9091C54.5227 36.2538 53.3201 41.6515 50.9148 46.1023C48.5284 50.553 45.2708 53.9527 41.142 56.3011C37.0322 58.6307 32.411 59.7955 27.2784 59.7955C22.108 59.7955 17.4678 58.6212 13.358 56.2727C9.24811 53.9242 6 50.5246 3.61364 46.0739C1.22727 41.6231 0.0340909 36.2348 0.0340909 29.9091C0.0340909 23.5644 1.22727 18.1667 3.61364 13.7159C6 9.26515 9.24811 5.875 13.358 3.54545C17.4678 1.19697 22.108 0.0227251 27.2784 0.0227251C32.411 0.0227251 37.0322 1.19697 41.142 3.54545C45.2708 5.875 48.5284 9.26515 50.9148 13.7159C53.3201 18.1667 54.5227 23.5644 54.5227 29.9091ZM42.0511 29.9091C42.0511 25.7992 41.4356 22.3333 40.2045 19.5114C38.9924 16.6894 37.2784 14.5492 35.0625 13.0909C32.8466 11.6326 30.2519 10.9034 27.2784 10.9034C24.3049 10.9034 21.7102 11.6326 19.4943 13.0909C17.2784 14.5492 15.5549 16.6894 14.3239 19.5114C13.1117 22.3333 12.5057 25.7992 12.5057 29.9091C12.5057 34.0189 13.1117 37.4848 14.3239 40.3068C15.5549 43.1288 17.2784 45.2689 19.4943 46.7273C21.7102 48.1856 24.3049 48.9148 27.2784 48.9148C30.2519 48.9148 32.8466 48.1856 35.0625 46.7273C37.2784 45.2689 38.9924 43.1288 40.2045 40.3068C41.4356 37.4848 42.0511 34.0189 42.0511 29.9091ZM63.6349 59V0.81818H86.5895C91.0024 0.81818 94.7618 1.66098 97.8679 3.34659C100.974 5.01326 103.341 7.33333 104.97 10.3068C106.618 13.2614 107.442 16.6705 107.442 20.5341C107.442 24.3977 106.608 27.8068 104.942 30.7614C103.275 33.7159 100.86 36.017 97.6974 37.6648C94.5535 39.3125 90.7467 40.1364 86.277 40.1364H71.6463V30.2784H84.2884C86.6558 30.2784 88.6065 29.8712 90.1406 29.0568C91.6937 28.2235 92.849 27.0777 93.6065 25.6193C94.383 24.142 94.7713 22.447 94.7713 20.5341C94.7713 18.6023 94.383 16.9167 93.6065 15.4773C92.849 14.0189 91.6937 12.892 90.1406 12.0966C88.5876 11.2822 86.6179 10.875 84.2315 10.875H75.9361V59H63.6349ZM115.432 59V0.81818H154.636V10.9602H127.733V24.8239H152.619V34.9659H127.733V48.858H154.75V59H115.432ZM213.081 0.81818V59H202.456L177.143 22.3807H176.717V59H164.416V0.81818H175.212L200.325 37.4091H200.837V0.81818H213.081ZM223.244 0.81818H238.415L254.438 39.9091H255.119L271.142 0.81818H286.312V59H274.381V21.1307H273.898L258.841 58.7159H250.716L235.659 20.9886H235.176V59H223.244V0.81818ZM306.476 59H293.294L313.379 0.81818H329.232L349.288 59H336.107L321.533 14.1136H321.078L306.476 59ZM305.652 36.1307H336.788V45.733H305.652V36.1307ZM346.966 10.9602V0.81818H394.75V10.9602H376.938V59H364.778V10.9602H346.966Z" fill="black"/>
</svg>
