<svg width="153" height="148" viewBox="0 0 153 148" fill="none" xmlns="http://www.w3.org/2000/svg">
<path d="M56.4958 144.366C22.7977 144.366 3 129.915 3 103.527C3 85.9346 13.7413 73.1594 32.0646 66.2481C24.2719 59.1275 19.4278 49.9125 19.4278 40.0693C19.4278 17.6602 38.1724 3 66.8158 3C92.3 3 109.149 16.613 109.149 36.9278C109.149 51.588 98.4078 62.8972 81.5588 68.9707L100.093 84.4686C102.62 80.0706 104.305 75.4631 107.254 68.133C112.519 55.7766 117.363 51.588 126.419 51.588C138.214 51.588 144.532 61.2218 144.322 62.0595C140.53 77.5574 132.738 92.0081 123.471 104.365L149.376 125.936C150.008 126.355 142.847 143.319 127.683 143.319C121.154 143.319 112.73 140.596 105.147 131.8L101.567 128.24C90.1939 138.292 75.8722 144.366 56.4958 144.366ZM59.655 116.93C67.0264 116.93 74.3979 113.58 80.2951 108.344L49.5455 81.9555C42.3847 85.7252 37.9618 91.1704 37.9618 98.9194C37.9618 110.019 46.5969 116.93 59.655 116.93ZM54.8109 41.1164C54.8109 47.1899 57.7595 51.588 63.0248 56.1955C73.9767 52.6351 77.9783 47.3994 77.9783 40.4881C77.9783 33.5769 73.3448 28.5506 66.6052 28.5506C59.4444 28.5506 54.8109 33.9958 54.8109 41.1164Z" fill="#FAFAFA" stroke="#EBEBEB" stroke-width="6"/>
</svg>
