<svg width="147" height="142" viewBox="0 0 147 142" fill="none" xmlns="http://www.w3.org/2000/svg">
<path d="M53.4958 141.366C19.7977 141.366 0 126.915 0 100.527C0 82.9346 10.7413 70.1594 29.0646 63.2481C21.2719 56.1275 16.4278 46.9125 16.4278 37.0693C16.4278 14.6602 35.1724 0 63.8158 0C89.3 0 106.149 13.613 106.149 33.9278C106.149 48.588 95.4078 59.8972 78.5588 65.9707L97.0927 81.4686C99.6201 77.0706 101.305 72.4631 104.254 65.133C109.519 52.7766 114.363 48.588 123.419 48.588C135.214 48.588 141.532 58.2218 141.322 59.0595C137.53 74.5574 129.738 89.0081 120.471 101.365L146.376 122.936C147.008 123.355 139.847 140.319 124.683 140.319C118.154 140.319 109.73 137.596 102.147 128.8L98.567 125.24C87.1939 135.292 72.8722 141.366 53.4958 141.366ZM56.655 113.93C64.0264 113.93 71.3979 110.58 77.2951 105.344L46.5455 78.9555C39.3847 82.7252 34.9618 88.1704 34.9618 95.9194C34.9618 107.019 43.5969 113.93 56.655 113.93ZM51.8109 38.1164C51.8109 44.1899 54.7595 48.588 60.0248 53.1955C70.9767 49.6351 74.9783 44.3994 74.9783 37.4881C74.9783 30.5769 70.3448 25.5506 63.6052 25.5506C56.4444 25.5506 51.8109 30.9958 51.8109 38.1164Z" fill="#FAFAFA"/>
</svg>
