<svg width="179" height="178" viewBox="0 0 179 178" fill="none" xmlns="http://www.w3.org/2000/svg">
<path d="M178.085 88.7016C178.085 39.827 138.258 0 89.3833 0C40.5087 0 0.681641 39.827 0.681641 88.7016C0.681641 114.425 11.7693 137.576 29.3323 153.809C29.3323 153.897 29.3323 153.897 29.2436 153.986C30.1306 154.873 31.195 155.583 32.082 156.381C32.6142 156.824 33.0577 157.268 33.5899 157.623C35.1866 158.953 36.9606 160.195 38.6459 161.437C39.2668 161.88 39.7991 162.235 40.42 162.679C42.1053 163.832 43.8793 164.896 45.7421 165.872C46.363 166.227 47.0726 166.67 47.6935 167.025C49.4675 168.001 51.3303 168.888 53.2817 169.686C53.9913 170.041 54.7009 170.396 55.4105 170.662C57.362 171.46 59.3134 172.17 61.2649 172.791C61.9745 173.057 62.6841 173.323 63.3937 173.5C65.5225 174.121 67.6514 174.654 69.7802 175.186C70.4011 175.363 71.022 175.541 71.7317 175.629C74.2153 176.161 76.6989 176.516 79.2713 176.782C79.6261 176.782 79.9809 176.871 80.3357 176.96C83.3516 177.226 86.3674 177.403 89.3833 177.403C92.3991 177.403 95.415 177.226 98.3421 176.96C98.6969 176.96 99.0518 176.871 99.4066 176.782C101.979 176.516 104.463 176.161 106.946 175.629C107.567 175.541 108.188 175.274 108.898 175.186C111.026 174.654 113.244 174.21 115.284 173.5C115.994 173.234 116.703 172.968 117.413 172.791C119.364 172.081 121.405 171.46 123.267 170.662C123.977 170.396 124.687 170.041 125.396 169.686C127.259 168.888 129.122 168.001 130.984 167.025C131.694 166.67 132.315 166.227 132.936 165.872C134.71 164.808 136.484 163.832 138.258 162.679C138.879 162.324 139.411 161.88 140.032 161.437C141.806 160.195 143.491 158.953 145.088 157.623C145.62 157.179 146.064 156.736 146.596 156.381C147.572 155.583 148.547 154.784 149.434 153.986C149.434 153.897 149.434 153.897 149.346 153.809C166.997 137.576 178.085 114.425 178.085 88.7016ZM133.202 132.786C109.164 116.643 69.7802 116.643 45.5647 132.786C41.6618 135.359 38.4685 138.375 35.8075 141.656C22.3248 127.996 13.9869 109.28 13.9869 88.7016C13.9869 47.1006 47.7822 13.3052 89.3833 13.3052C130.984 13.3052 164.78 47.1006 164.78 88.7016C164.78 109.28 156.442 127.996 142.959 141.656C140.387 138.375 137.105 135.359 133.202 132.786Z" fill="#F3F4F6"/>
<path d="M89.3842 43.7266C71.023 43.7266 56.1211 58.6284 56.1211 76.9898C56.1211 94.9962 70.2247 109.632 88.9407 110.164H89.739H90.3599H90.5373C108.455 109.543 122.559 94.9962 122.647 76.9898C122.647 58.6284 107.745 43.7266 89.3842 43.7266Z" fill="#F3F4F6"/>
</svg>
