<svg width="187" height="187" viewBox="0 0 187 187" fill="none" xmlns="http://www.w3.org/2000/svg">
<path fill-rule="evenodd" clip-rule="evenodd" d="M127.335 68.1263C127.335 77.0995 123.77 85.7051 117.425 92.0501C111.08 98.3951 102.474 101.96 93.5013 101.96C84.5281 101.96 75.9225 98.3951 69.5775 92.0501C63.2325 85.7051 59.668 77.0995 59.668 68.1263C59.668 59.1531 63.2325 50.5475 69.5775 44.2025C75.9225 37.8575 84.5281 34.293 93.5013 34.293C102.474 34.293 111.08 37.8575 117.425 44.2025C123.77 50.5475 127.335 59.1531 127.335 68.1263ZM110.418 68.1263C110.418 72.6129 108.636 76.9157 105.463 80.0882C102.291 83.2607 97.9879 85.043 93.5013 85.043C89.0147 85.043 84.7119 83.2607 81.5394 80.0882C78.3669 76.9157 76.5846 72.6129 76.5846 68.1263C76.5846 63.6397 78.3669 59.3369 81.5394 56.1644C84.7119 52.9919 89.0147 51.2096 93.5013 51.2096C97.9879 51.2096 102.291 52.9919 105.463 56.1644C108.636 59.3369 110.418 63.6397 110.418 68.1263Z" fill="#EBEBEB"/>
<path fill-rule="evenodd" clip-rule="evenodd" d="M93.5006 0.458984C42.1163 0.458984 0.458984 42.1163 0.458984 93.5006C0.458984 144.885 42.1163 186.542 93.5006 186.542C144.885 186.542 186.542 144.885 186.542 93.5006C186.542 42.1163 144.885 0.458984 93.5006 0.458984ZM17.3757 93.5006C17.3757 111.179 23.4064 127.452 33.5141 140.377C40.6144 131.057 49.7724 123.504 60.2733 118.307C70.7742 113.11 82.3339 110.41 94.0504 110.417C105.616 110.404 117.032 113.032 127.428 118.101C137.824 123.17 146.925 130.546 154.037 139.666C161.366 130.054 166.3 118.835 168.432 106.937C170.564 95.0397 169.832 82.8054 166.297 71.2466C162.762 59.6879 156.526 49.1371 148.103 40.4672C139.681 31.7973 129.315 25.2576 117.864 21.3892C106.412 17.5208 94.2044 16.4348 82.2499 18.2213C70.2954 20.0077 58.9381 24.6151 49.1178 31.6622C39.2975 38.7094 31.2965 47.9937 25.7767 58.747C20.257 69.5003 17.3772 81.4134 17.3757 93.5006ZM93.5006 169.626C76.0249 169.654 59.0764 163.642 45.525 152.607C50.979 144.797 58.2395 138.42 66.6884 134.02C75.1372 129.62 84.5243 127.326 94.0504 127.334C103.458 127.326 112.731 129.562 121.1 133.858C129.469 138.154 136.692 144.384 142.17 152.032C128.514 163.426 111.286 169.653 93.5006 169.626Z" fill="#EBEBEB"/>
</svg>
