<svg width="125" height="139" viewBox="0 0 125 139" fill="none" xmlns="http://www.w3.org/2000/svg">
<path d="M34.7222 20.85V34.75H13.8889V125.1H111.111V34.75H90.2778V20.85H111.111C114.795 20.85 118.327 22.3145 120.932 24.9212C123.537 27.528 125 31.0635 125 34.75V125.1C125 128.786 123.537 132.322 120.932 134.929C118.327 137.536 114.795 139 111.111 139H13.8889C10.2053 139 6.67263 137.536 4.06796 134.929C1.46329 132.322 0 128.786 0 125.1V34.75C0 31.0635 1.46329 27.528 4.06796 24.9212C6.67263 22.3145 10.2053 20.85 13.8889 20.85H34.7222ZM62.5 0C64.3418 0 66.1081 0.73223 67.4105 2.03561C68.7128 3.33899 69.4444 5.10675 69.4444 6.95V82.2046L82.1389 69.5C82.7836 68.8543 83.5492 68.342 84.3918 67.9923C85.2343 67.6427 86.1375 67.4626 87.0496 67.4622C87.9618 67.4619 88.8651 67.6414 89.7079 67.9904C90.5507 68.3395 91.3166 68.8513 91.9618 69.4965C92.607 70.1418 93.1189 70.9079 93.4683 71.7512C93.8176 72.5945 93.9976 73.4983 93.9979 74.4112C93.9983 75.3241 93.8189 76.2281 93.4702 77.0716C93.1214 77.9151 92.61 78.6816 91.9653 79.3273L68.632 102.672C67.0042 104.3 64.7975 105.214 62.4965 105.214C60.1956 105.214 57.9888 104.3 56.3611 102.672L33.0347 79.3273C32.39 78.6816 31.8786 77.9151 31.5298 77.0716C31.1811 76.2281 31.0017 75.3241 31.0021 74.4112C31.0024 73.4983 31.1824 72.5945 31.5317 71.7512C31.8811 70.9079 32.393 70.1418 33.0382 69.4965C33.6834 68.8513 34.4493 68.3395 35.2921 67.9904C36.135 67.6414 37.0382 67.4619 37.9504 67.4622C38.8625 67.4626 39.7657 67.6427 40.6082 67.9923C41.4508 68.342 42.2164 68.8543 42.8611 69.5L55.5556 82.2046V6.95C55.5556 5.10675 56.2872 3.33899 57.5895 2.03561C58.8919 0.73223 60.6582 0 62.5 0Z" fill="white"/>
</svg>
