<svg width="500" height="300" viewBox="0 0 500 300" fill="none" xmlns="http://www.w3.org/2000/svg">
<path d="M435.435 0C439.057 0 442.556 0 446.111 0C446.402 14.8622 451.516 27.6617 461.995 38.1562C472.447 48.6247 485.232 53.7022 500 54.095C500 118.055 500 181.959 500 246.057C485.285 246.415 472.448 251.511 461.986 261.982C451.551 272.427 446.431 285.192 446.118 300C315.466 300 184.817 300 53.9725 300C53.5935 285.328 48.5529 272.516 38.0768 262.029C27.5886 251.531 14.7867 246.445 0 246.067C0 182.045 0 118.135 0 54.0825C14.7531 53.7456 27.5945 48.6432 38.0843 38.1495C48.5782 27.6516 53.6324 14.7788 53.9735 0C181.236 0 308.274 0 435.435 0Z" fill="white"/>
</svg>
